<svg width="166" height="240" viewBox="0 0 166 240" fill="none" xmlns="http://www.w3.org/2000/svg">
<path fill-rule="evenodd" clip-rule="evenodd" d="M83 148C123.317 148 156 115.317 156 75C156 34.6832 123.317 2 83 2C42.6832 2 10 34.6832 10 75C10 115.317 42.6832 148 83 148ZM83 150C124.421 150 158 116.421 158 75C158 33.5786 124.421 0 83 0C41.5786 0 8 33.5786 8 75C8 116.421 41.5786 150 83 150Z" fill="#FFC41E"/>
<path fill-rule="evenodd" clip-rule="evenodd" d="M73.5615 47.2763C73.5615 45.8769 74.1168 44.5349 75.1051 43.5454C76.0934 42.5559 77.4339 42 78.8316 42H110.452C111.85 42 113.19 42.5559 114.179 43.5454C115.167 44.5349 115.722 45.8769 115.722 47.2763V60.4671H73.5615V47.2763ZM103.865 49.9145C103.515 49.9145 103.18 50.0534 102.933 50.3008C102.686 50.5482 102.547 50.8837 102.547 51.2335V53.8717C102.547 54.2215 102.686 54.557 102.933 54.8044C103.18 55.0518 103.515 55.1908 103.865 55.1908H109.135C109.484 55.1908 109.819 55.0518 110.066 54.8044C110.313 54.557 110.452 54.2215 110.452 53.8717V51.2335C110.452 50.8837 110.313 50.5482 110.066 50.3008C109.819 50.0534 109.484 49.9145 109.135 49.9145H103.865Z" fill="#FFC41E"/>
<path d="M73.5615 65.7433V68.3815C73.5615 69.7809 74.1168 71.1229 75.1051 72.1124C76.0934 73.1019 77.4339 73.6578 78.8316 73.6578H110.452C111.85 73.6578 113.19 73.1019 114.179 72.1124C115.167 71.1229 115.722 69.7809 115.722 68.3815V65.7433H73.5615Z" fill="#FFC41E"/>
<path fill-rule="evenodd" clip-rule="evenodd" d="M41 70.6338V104H47.3347V70.6338H41ZM39 66.6338C37.8954 66.6338 37 67.5292 37 68.6338V106C37 107.105 37.8954 108 39 108H49.3347C50.4392 108 51.3347 107.105 51.3347 106V68.6338C51.3347 67.5292 50.4392 66.6338 49.3347 66.6338H39Z" fill="#242424"/>
<path fill-rule="evenodd" clip-rule="evenodd" d="M53.8535 73.6578H57.8535V99.139C60.1216 99.2433 61.8365 99.518 63.5212 99.8178C63.7316 99.8552 63.9408 99.8929 64.1502 99.9306C66.037 100.27 67.9344 100.612 70.7345 100.787L70.9772 100.802L71.2092 100.875C82.2169 104.333 88.581 105.359 93.4289 104.889C98.2109 104.426 101.713 102.5 107.124 99.3642C110.925 97.1608 117.23 92.3009 121.708 88.6326C124.666 85.6996 125.674 84.1342 125.938 83.3374C125.995 83.1653 126.001 83.0753 125.999 83.0399C125.995 83.0308 125.982 83.0047 125.948 82.9583C125.899 82.8907 125.821 82.8001 125.69 82.6691C125.16 82.1379 124.73 81.9304 124.394 81.8498C124.056 81.7685 123.649 81.7764 123.101 81.9427C121.891 82.3102 120.459 83.2865 118.504 84.7545C118.252 84.9434 117.994 85.1389 117.729 85.3394C114.149 88.052 109.368 91.6749 103.216 92.1148C98.5327 92.4497 92.3061 92.2308 86.8569 91.9387C84.6508 91.8204 82.5911 91.6917 80.7944 91.5795C78.057 91.4085 75.93 91.2757 74.8259 91.2757V87.2757C76.0446 87.2757 78.4082 87.4227 81.3002 87.6027C83.0726 87.713 85.0435 87.8357 87.0711 87.9444C92.5246 88.2368 98.5247 88.4401 102.931 88.125C107.853 87.773 111.734 84.8474 115.472 82.0302C115.682 81.8716 115.892 81.7133 116.102 81.5558C117.941 80.1746 119.935 78.7238 121.939 78.1152C122.999 77.7934 124.146 77.676 125.33 77.9607C126.517 78.2462 127.575 78.8961 128.52 79.8423C128.92 80.242 129.467 80.8496 129.771 81.7063C130.096 82.6244 130.066 83.5955 129.736 84.5937C129.138 86.3996 127.457 88.5737 124.455 91.5419L124.389 91.6075L124.317 91.6665C119.846 95.3316 113.266 100.427 109.13 102.825C103.785 105.923 99.5777 108.313 93.8145 108.871C88.1569 109.419 81.1981 108.192 70.2408 104.763C67.3324 104.569 65.2924 104.201 63.4442 103.868C63.2342 103.83 63.0266 103.793 62.8205 103.756C60.7913 103.395 58.8517 103.095 55.8535 103.095H53.8535V73.6578ZM125.996 83.0216C125.997 83.0212 125.999 83.0264 125.999 83.0388C125.996 83.0282 125.996 83.022 125.996 83.0216Z" fill="#242424"/>
<path fill-rule="evenodd" clip-rule="evenodd" d="M56.5105 75.4567C55.7138 75.5318 54.9759 75.6014 54.3208 75.6518L54.0137 71.6637C54.5509 71.6223 55.2204 71.5594 55.9746 71.4886C57.6052 71.3355 59.6319 71.1451 61.574 71.0545C63.0211 70.987 64.5023 70.9687 65.8617 71.0603C67.1915 71.1499 68.5463 71.3523 69.6671 71.8012C72.1591 72.7992 73.8845 74.3823 75.1858 75.6539C75.3522 75.8165 75.5072 75.9696 75.6539 76.1143C76.1103 76.5649 76.4848 76.9345 76.864 77.2594C77.3513 77.6768 77.6802 77.8684 77.9236 77.9499C80.3869 78.7744 83.7595 79.1478 87.0821 79.3375C88.6671 79.428 90.1943 79.4749 91.5603 79.5169L91.6997 79.5211C93.0722 79.5633 94.331 79.6029 95.2445 79.686C95.5924 79.7177 95.9757 79.7474 96.3852 79.7792C98.4715 79.9411 101.241 80.1561 103.521 80.9498C104.931 81.441 106.365 82.2153 107.409 83.5075C108.492 84.8475 108.998 86.5496 108.864 88.5643C108.756 90.1813 107.51 91.0365 106.617 91.4386C105.678 91.8615 104.5 92.0946 103.292 92.2355C100.837 92.5217 97.5872 92.4947 94.1931 92.35C91.2146 92.2231 88.0316 92.0003 85.0489 91.7916C84.6104 91.7609 84.1762 91.7305 83.7477 91.7008C80.3712 91.4665 77.3782 91.2756 75.2476 91.2756V87.2756C77.5439 87.2756 80.6837 87.4786 84.0245 87.7104C84.457 87.7404 84.8935 87.7709 85.3329 87.8017C88.321 88.0107 91.444 88.2292 94.3635 88.3537C97.7345 88.4974 100.713 88.5091 102.829 88.2624C103.824 88.1464 104.491 87.9871 104.884 87.8298C104.866 86.9582 104.612 86.4098 104.298 86.0212C103.893 85.5196 103.219 85.0803 102.205 84.7273C100.466 84.1217 98.3488 83.9521 96.2556 83.7845C95.7951 83.7476 95.3358 83.7109 94.8819 83.6696C94.1158 83.5998 92.997 83.5629 91.5768 83.5192L91.4236 83.5145C90.0662 83.4729 88.4927 83.4245 86.8541 83.331C83.4972 83.1393 79.6621 82.7499 76.654 81.7431C75.6984 81.4232 74.9091 80.8517 74.2619 80.2973C73.7644 79.8712 73.2517 79.3646 72.7735 78.8922C72.6428 78.7631 72.5146 78.6365 72.3901 78.5147C71.1622 77.3148 69.904 76.2049 68.18 75.5145C67.6362 75.2967 66.771 75.1307 65.5928 75.0513C64.4443 74.9739 63.1296 74.9862 61.7605 75.0501C59.904 75.1368 58.0915 75.3077 56.5105 75.4567ZM105.147 87.6999C105.148 87.7 105.143 87.7037 105.132 87.7107C105.141 87.7033 105.147 87.6998 105.147 87.6999Z" fill="#242424"/>
<path d="M9.86706 178.8V190H8.37906V180.208H3.22706V190H1.73906V178.8H9.86706ZM13.1023 186.64C13.241 187.355 13.5663 187.909 14.0783 188.304C14.601 188.699 15.241 188.896 15.9983 188.896C17.0543 188.896 17.8223 188.507 18.3023 187.728L19.4863 188.4C18.7076 189.605 17.5343 190.208 15.9663 190.208C14.697 190.208 13.6623 189.813 12.8623 189.024C12.073 188.224 11.6783 187.216 11.6783 186C11.6783 184.795 12.0676 183.792 12.8463 182.992C13.625 182.192 14.633 181.792 15.8703 181.792C17.0436 181.792 17.9983 182.208 18.7343 183.04C19.481 183.861 19.8543 184.853 19.8543 186.016C19.8543 186.219 19.8383 186.427 19.8063 186.64H13.1023ZM15.8703 183.104C15.1236 183.104 14.505 183.317 14.0143 183.744C13.5236 184.16 13.2196 184.72 13.1023 185.424H18.4463C18.329 184.667 18.0303 184.091 17.5503 183.696C17.0703 183.301 16.5103 183.104 15.8703 183.104ZM25.8704 181.792C26.9904 181.792 27.9451 182.203 28.7344 183.024C29.5238 183.835 29.9184 184.827 29.9184 186C29.9184 187.173 29.5238 188.171 28.7344 188.992C27.9451 189.803 26.9904 190.208 25.8704 190.208C24.5478 190.208 23.5398 189.68 22.8464 188.624V193.2H21.4544V182H22.8464V183.376C23.5398 182.32 24.5478 181.792 25.8704 181.792ZM25.6944 188.864C26.4944 188.864 27.1664 188.592 27.7104 188.048C28.2544 187.493 28.5264 186.811 28.5264 186C28.5264 185.189 28.2544 184.512 27.7104 183.968C27.1664 183.413 26.4944 183.136 25.6944 183.136C24.8838 183.136 24.2064 183.413 23.6624 183.968C23.1184 184.512 22.8464 185.189 22.8464 186C22.8464 186.811 23.1184 187.493 23.6624 188.048C24.2064 188.592 24.8838 188.864 25.6944 188.864ZM32.5554 186.64C32.6941 187.355 33.0194 187.909 33.5314 188.304C34.0541 188.699 34.6941 188.896 35.4514 188.896C36.5074 188.896 37.2754 188.507 37.7554 187.728L38.9394 188.4C38.1608 189.605 36.9874 190.208 35.4194 190.208C34.1501 190.208 33.1154 189.813 32.3154 189.024C31.5261 188.224 31.1314 187.216 31.1314 186C31.1314 184.795 31.5208 183.792 32.2994 182.992C33.0781 182.192 34.0861 181.792 35.3234 181.792C36.4968 181.792 37.4514 182.208 38.1874 183.04C38.9341 183.861 39.3074 184.853 39.3074 186.016C39.3074 186.219 39.2914 186.427 39.2594 186.64H32.5554ZM35.3234 183.104C34.5768 183.104 33.9581 183.317 33.4674 183.744C32.9768 184.16 32.6728 184.72 32.5554 185.424H37.8994C37.7821 184.667 37.4834 184.091 37.0034 183.696C36.5234 183.301 35.9634 183.104 35.3234 183.104ZM45.9476 182H47.3396V190H45.9476V187.12C45.3076 187.397 44.5876 187.536 43.7876 187.536C42.7636 187.536 41.9689 187.296 41.4036 186.816C40.8489 186.325 40.5716 185.605 40.5716 184.656V182H41.9636V184.576C41.9636 185.173 42.1236 185.6 42.4436 185.856C42.7742 186.112 43.2542 186.24 43.8836 186.24C44.6409 186.24 45.3289 186.101 45.9476 185.824V182ZM55.2624 182H56.3824V190H55.0064V184.384L50.5744 190H49.4544V182H50.8304V187.616L55.2624 182ZM62.2613 190.208C61.056 190.208 60.0533 189.808 59.2533 189.008C58.4533 188.197 58.0533 187.195 58.0533 186C58.0533 184.805 58.4533 183.808 59.2533 183.008C60.0533 182.197 61.056 181.792 62.2613 181.792C63.0506 181.792 63.76 181.984 64.3893 182.368C65.0186 182.741 65.488 183.248 65.7973 183.888L64.6293 184.56C64.4266 184.133 64.112 183.792 63.6853 183.536C63.2693 183.28 62.7946 183.152 62.2613 183.152C61.4613 183.152 60.7893 183.424 60.2453 183.968C59.712 184.512 59.4453 185.189 59.4453 186C59.4453 186.8 59.712 187.472 60.2453 188.016C60.7893 188.56 61.4613 188.832 62.2613 188.832C62.7946 188.832 63.2746 188.709 63.7013 188.464C64.128 188.208 64.4533 187.867 64.6773 187.44L65.8613 188.128C65.52 188.757 65.0293 189.264 64.3893 189.648C63.7493 190.021 63.04 190.208 62.2613 190.208ZM73.7514 182V190H72.3594V183.344H69.2074V186.608C69.2074 187.92 68.9408 188.837 68.4074 189.36C67.8848 189.872 67.1434 190.085 66.1834 190V188.688C66.7274 188.763 67.1328 188.645 67.3994 188.336C67.6768 188.016 67.8154 187.429 67.8154 186.576V182H73.7514ZM81.6687 182H82.7887V190H81.4127V184.384L76.9807 190H75.8607V182H77.2367V187.616L81.6687 182ZM90.8596 182V183.344H88.1396V190H86.7476V183.344H84.0116V182H90.8596ZM95.4554 184.88C96.2554 184.88 96.9168 185.12 97.4394 185.6C97.9728 186.069 98.2394 186.683 98.2394 187.44C98.2394 188.197 97.9728 188.816 97.4394 189.296C96.9168 189.765 96.2554 190 95.4554 190H92.0794V182H93.4714V184.88H95.4554ZM95.4554 188.704C95.8501 188.704 96.1808 188.592 96.4474 188.368C96.7248 188.133 96.8634 187.824 96.8634 187.44C96.8634 187.056 96.7248 186.747 96.4474 186.512C96.1808 186.277 95.8501 186.16 95.4554 186.16H93.4714V188.704H95.4554ZM110.616 188.672H111.72V192.144H110.344V190H104.344V192.144H102.968V188.672H103.944C104.456 187.968 104.712 186.981 104.712 185.712V182H110.616V188.672ZM105.528 188.672H109.24V183.296H106.088V185.712C106.088 186.907 105.901 187.893 105.528 188.672ZM113.884 186.64C114.022 187.355 114.348 187.909 114.86 188.304C115.382 188.699 116.022 188.896 116.78 188.896C117.836 188.896 118.604 188.507 119.084 187.728L120.268 188.4C119.489 189.605 118.316 190.208 116.748 190.208C115.478 190.208 114.444 189.813 113.644 189.024C112.854 188.224 112.46 187.216 112.46 186C112.46 184.795 112.849 183.792 113.628 182.992C114.406 182.192 115.414 181.792 116.652 181.792C117.825 181.792 118.78 182.208 119.516 183.04C120.262 183.861 120.636 184.853 120.636 186.016C120.636 186.219 120.62 186.427 120.588 186.64H113.884ZM116.652 183.104C115.905 183.104 115.286 183.317 114.796 183.744C114.305 184.16 114.001 184.72 113.884 185.424H119.228C119.11 184.667 118.812 184.091 118.332 183.696C117.852 183.301 117.292 183.104 116.652 183.104ZM127.772 182H129.164V190H127.772V186.656H123.628V190H122.236V182H123.628V185.328H127.772V182ZM134.659 184.88C135.459 184.88 136.12 185.12 136.643 185.6C137.176 186.069 137.443 186.683 137.443 187.44C137.443 188.197 137.176 188.816 136.643 189.296C136.12 189.765 135.459 190 134.659 190H131.283V182H132.675V184.88H134.659ZM134.659 188.704C135.053 188.704 135.384 188.592 135.651 188.368C135.928 188.133 136.067 187.824 136.067 187.44C136.067 187.056 135.928 186.747 135.651 186.512C135.384 186.277 135.053 186.16 134.659 186.16H132.675V188.704H134.659ZM144.187 182V183.344H140.331V190H138.939V182H144.187ZM151.216 182H152.336V190H150.96V184.384L146.528 190H145.408V182H146.784V187.616L151.216 182ZM163.782 185.888C164.604 186.229 165.014 186.848 165.014 187.744C165.014 188.405 164.79 188.949 164.342 189.376C163.905 189.792 163.276 190 162.454 190H158.454V182H162.134C162.934 182 163.553 182.203 163.99 182.608C164.428 183.003 164.646 183.525 164.646 184.176C164.646 184.944 164.358 185.515 163.782 185.888ZM162.07 183.248H159.814V185.344H162.07C162.881 185.344 163.286 184.987 163.286 184.272C163.286 183.589 162.881 183.248 162.07 183.248ZM162.374 188.736C162.78 188.736 163.089 188.64 163.302 188.448C163.526 188.256 163.638 187.984 163.638 187.632C163.638 187.301 163.526 187.045 163.302 186.864C163.089 186.672 162.78 186.576 162.374 186.576H159.814V188.736H162.374ZM40.1349 205.2C40.8815 205.968 41.2549 206.901 41.2549 208C41.2549 209.099 40.8815 210.032 40.1349 210.8C39.3882 211.568 38.3909 212.021 37.1429 212.16V215.2H35.7669V212.16C34.5189 212.021 33.5215 211.568 32.7749 210.8C32.0282 210.032 31.6549 209.099 31.6549 208C31.6549 206.901 32.0282 205.968 32.7749 205.2C33.5215 204.432 34.5189 203.979 35.7669 203.84V200.8H37.1429V203.84C38.3909 203.979 39.3882 204.432 40.1349 205.2ZM33.0309 208C33.0309 208.736 33.2709 209.36 33.7509 209.872C34.2415 210.384 34.9135 210.699 35.7669 210.816V205.184C34.9135 205.291 34.2415 205.6 33.7509 206.112C33.2709 206.624 33.0309 207.253 33.0309 208ZM37.1429 210.816C37.9962 210.699 38.6629 210.384 39.1429 209.872C39.6229 209.36 39.8629 208.736 39.8629 208C39.8629 207.264 39.6229 206.64 39.1429 206.128C38.6629 205.616 37.9962 205.301 37.1429 205.184V210.816ZM49.6518 210.992C48.8304 211.803 47.8331 212.208 46.6598 212.208C45.4864 212.208 44.4891 211.803 43.6678 210.992C42.8571 210.181 42.4518 209.184 42.4518 208C42.4518 206.816 42.8571 205.819 43.6678 205.008C44.4891 204.197 45.4864 203.792 46.6598 203.792C47.8331 203.792 48.8304 204.197 49.6518 205.008C50.4731 205.819 50.8837 206.816 50.8837 208C50.8837 209.184 50.4731 210.181 49.6518 210.992ZM46.6598 210.848C47.4598 210.848 48.1318 210.576 48.6758 210.032C49.2198 209.488 49.4918 208.811 49.4918 208C49.4918 207.189 49.2198 206.512 48.6758 205.968C48.1318 205.424 47.4598 205.152 46.6598 205.152C45.8704 205.152 45.2038 205.424 44.6598 205.968C44.1158 206.512 43.8438 207.189 43.8438 208C43.8438 208.811 44.1158 209.488 44.6598 210.032C45.2038 210.576 45.8704 210.848 46.6598 210.848ZM58.0608 204H59.4528V212H58.0608V208.656H53.9168V212H52.5247V204H53.9168V207.328H58.0608V204ZM68.4516 210.672H69.5556V214.144H68.1796V212H62.1796V214.144H60.8036V210.672H61.7796C62.2916 209.968 62.5476 208.981 62.5476 207.712V204H68.4516V210.672ZM63.3636 210.672H67.0756V205.296H63.9236V207.712C63.9236 208.907 63.737 209.893 63.3636 210.672ZM81.984 204V212H80.592V205.328H76.448V212H75.056V204H81.984ZM90.8549 210.992C90.0335 211.803 89.0362 212.208 87.8629 212.208C86.6895 212.208 85.6922 211.803 84.8709 210.992C84.0602 210.181 83.6549 209.184 83.6549 208C83.6549 206.816 84.0602 205.819 84.8709 205.008C85.6922 204.197 86.6895 203.792 87.8629 203.792C89.0362 203.792 90.0335 204.197 90.8549 205.008C91.6762 205.819 92.0869 206.816 92.0869 208C92.0869 209.184 91.6762 210.181 90.8549 210.992ZM87.8629 210.848C88.6629 210.848 89.3349 210.576 89.8789 210.032C90.4229 209.488 90.6949 208.811 90.6949 208C90.6949 207.189 90.4229 206.512 89.8789 205.968C89.3349 205.424 88.6629 205.152 87.8629 205.152C87.0735 205.152 86.4069 205.424 85.8629 205.968C85.3189 206.512 85.0469 207.189 85.0469 208C85.0469 208.811 85.3189 209.488 85.8629 210.032C86.4069 210.576 87.0735 210.848 87.8629 210.848ZM101.728 204V212H100.368V206.192L97.8239 210.288H97.6479L95.1039 206.192V212H93.7279V204H95.2159L97.7279 208.048L100.24 204H101.728ZM110.605 210.992C109.784 211.803 108.786 212.208 107.613 212.208C106.44 212.208 105.442 211.803 104.621 210.992C103.81 210.181 103.405 209.184 103.405 208C103.405 206.816 103.81 205.819 104.621 205.008C105.442 204.197 106.44 203.792 107.613 203.792C108.786 203.792 109.784 204.197 110.605 205.008C111.426 205.819 111.837 206.816 111.837 208C111.837 209.184 111.426 210.181 110.605 210.992ZM107.613 210.848C108.413 210.848 109.085 210.576 109.629 210.032C110.173 209.488 110.445 208.811 110.445 208C110.445 207.189 110.173 206.512 109.629 205.968C109.085 205.424 108.413 205.152 107.613 205.152C106.824 205.152 106.157 205.424 105.613 205.968C105.069 206.512 104.797 207.189 104.797 208C104.797 208.811 105.069 209.488 105.613 210.032C106.157 210.576 106.824 210.848 107.613 210.848ZM124.358 210.672H125.462V214.144H124.086V212H113.478V204H114.87V210.672H118.23V204H119.622V210.672H122.966V204H124.358V210.672ZM132.77 204H133.89V212H132.514V206.384L128.082 212H126.962V204H128.338V209.616L132.77 204Z" fill="#474747"/>
</svg>
