<svg width="166" height="240" viewBox="0 0 166 240" fill="none" xmlns="http://www.w3.org/2000/svg">
<path fill-rule="evenodd" clip-rule="evenodd" d="M83 148C123.317 148 156 115.317 156 75C156 34.6832 123.317 2 83 2C42.6832 2 10 34.6832 10 75C10 115.317 42.6832 148 83 148ZM83 150C124.421 150 158 116.421 158 75C158 33.5786 124.421 0 83 0C41.5786 0 8 33.5786 8 75C8 116.421 41.5786 150 83 150Z" fill="#FFC41E"/>
<path fill-rule="evenodd" clip-rule="evenodd" d="M52.8814 49.846L39 49.846V64.757H52.8814V78.603H67.8303V64.757H81.7111V49.846L67.8303 49.846V36H52.8814V49.846ZM56.8814 40V53.846L43 53.846V60.757H56.8814V74.603H63.8303V60.757H77.7111V53.846L63.8303 53.846V40H56.8814Z" fill="#FFC41E"/>
<path d="M82.745 73.9577L101.574 80.4733V107.053C101.574 107.57 101.363 108.065 100.986 108.43C100.609 108.795 100.098 109 99.565 109H91.5279C90.9951 109 90.484 108.795 90.1072 108.43C89.7304 108.065 89.5187 107.57 89.5187 107.053V93.4256H69.4261V107.053C69.4261 107.57 69.2144 108.065 68.8376 108.43C68.4608 108.795 67.9497 109 67.4168 109H59.3798C58.8469 109 58.3358 108.795 57.959 108.43C57.5822 108.065 57.3705 107.57 57.3705 107.053V81.0257C52.704 79.4136 49.3335 75.133 49.3335 70.0641C49.3335 69.0314 49.7569 68.0411 50.5105 67.3109C51.2641 66.5807 52.2862 66.1705 53.352 66.1705C54.4178 66.1705 55.4399 66.5807 56.1935 67.3109C56.9472 68.0411 57.3705 69.0314 57.3705 70.0641C57.3725 71.0961 57.7965 72.0853 58.5497 72.8151C59.3029 73.5449 60.3239 73.9557 61.3891 73.9577H82.745ZM113.63 60.3301V64.2237C113.63 66.289 112.783 68.2697 111.276 69.73C109.769 71.1904 107.724 72.0109 105.593 72.0109H101.574V76.3401L85.5002 70.7783V52.5429C85.5002 50.809 87.6626 49.9403 88.9297 51.1668L92.3555 54.4897H99.0903C100.46 54.4897 102.073 55.4534 102.684 56.6421L103.583 58.3833H111.621C112.153 58.3833 112.664 58.5884 113.041 58.9535C113.418 59.3186 113.63 59.8138 113.63 60.3301ZM99.565 60.3301C99.565 59.945 99.4471 59.5686 99.2264 59.2485C99.0056 58.9284 98.6918 58.6788 98.3246 58.5315C97.9575 58.3841 97.5535 58.3456 97.1637 58.4207C96.774 58.4958 96.416 58.6812 96.135 58.9535C95.854 59.2258 95.6626 59.5726 95.5851 59.9503C95.5075 60.3279 95.5473 60.7194 95.6994 61.0751C95.8515 61.4308 96.109 61.7349 96.4394 61.9488C96.7699 62.1627 97.1583 62.2769 97.5557 62.2769C98.0886 62.2769 98.5997 62.0718 98.9765 61.7067C99.3533 61.3416 99.565 60.8464 99.565 60.3301Z" fill="#242424"/>
<path d="M132 96.9749C132 103.675 126.483 109 119.543 109H108.865C101.925 109 96.4077 103.675 96.4077 96.9749V91.8214H132V96.9749Z" fill="#FFC41E"/>
<path d="M34.6405 178.8V190H33.1525V180.208H28.0005V190H26.5125V178.8H34.6405ZM41.3158 181.792C42.4358 181.792 43.3904 182.203 44.1798 183.024C44.9691 183.835 45.3638 184.827 45.3638 186C45.3638 187.173 44.9691 188.171 44.1798 188.992C43.3904 189.803 42.4358 190.208 41.3158 190.208C39.9931 190.208 38.9851 189.68 38.2918 188.624V193.2H36.8997V182H38.2918V183.376C38.9851 182.32 39.9931 181.792 41.3158 181.792ZM41.1398 188.864C41.9398 188.864 42.6118 188.592 43.1558 188.048C43.6998 187.493 43.9718 186.811 43.9718 186C43.9718 185.189 43.6998 184.512 43.1558 183.968C42.6118 183.413 41.9398 183.136 41.1398 183.136C40.3291 183.136 39.6518 183.413 39.1078 183.968C38.5638 184.512 38.2918 185.189 38.2918 186C38.2918 186.811 38.5638 187.493 39.1078 188.048C39.6518 188.592 40.3291 188.864 41.1398 188.864ZM52.8328 182H53.9528V190H52.5768V184.384L48.1448 190H47.0247V182H48.4008V187.616L52.8328 182ZM61.3996 185.888C62.221 186.229 62.6316 186.848 62.6316 187.744C62.6316 188.405 62.4076 188.949 61.9596 189.376C61.5223 189.792 60.893 190 60.0716 190H56.0716V182H59.7516C60.5516 182 61.1703 182.203 61.6076 182.608C62.045 183.003 62.2636 183.525 62.2636 184.176C62.2636 184.944 61.9756 185.515 61.3996 185.888ZM59.6876 183.248H57.4316V185.344H59.6876C60.4983 185.344 60.9036 184.987 60.9036 184.272C60.9036 183.589 60.4983 183.248 59.6876 183.248ZM59.9916 188.736C60.397 188.736 60.7063 188.64 60.9196 188.448C61.1436 188.256 61.2556 187.984 61.2556 187.632C61.2556 187.301 61.1436 187.045 60.9196 186.864C60.7063 186.672 60.397 186.576 59.9916 186.576H57.4316V188.736H59.9916ZM65.1101 186.64C65.2488 187.355 65.5741 187.909 66.0861 188.304C66.6088 188.699 67.2488 188.896 68.0061 188.896C69.0621 188.896 69.8301 188.507 70.3101 187.728L71.4941 188.4C70.7155 189.605 69.5421 190.208 67.9741 190.208C66.7048 190.208 65.6701 189.813 64.8701 189.024C64.0808 188.224 63.6861 187.216 63.6861 186C63.6861 184.795 64.0755 183.792 64.8541 182.992C65.6328 182.192 66.6408 181.792 67.8781 181.792C69.0515 181.792 70.0061 182.208 70.7421 183.04C71.4888 183.861 71.8621 184.853 71.8621 186.016C71.8621 186.219 71.8461 186.427 71.8141 186.64H65.1101ZM67.8781 183.104C67.1315 183.104 66.5128 183.317 66.0221 183.744C65.5315 184.16 65.2275 184.72 65.1101 185.424H70.4541C70.3368 184.667 70.0381 184.091 69.5581 183.696C69.0781 183.301 68.5181 183.104 67.8781 183.104ZM77.6104 185.904C78.4957 186.267 78.9384 186.901 78.9384 187.808C78.9384 188.48 78.6717 189.051 78.1384 189.52C77.605 189.979 76.8477 190.208 75.8664 190.208C74.2664 190.208 73.1944 189.568 72.6504 188.288L73.8184 187.6C74.1277 188.475 74.8157 188.912 75.8824 188.912C76.4157 188.912 76.8264 188.8 77.1144 188.576C77.413 188.341 77.5624 188.043 77.5624 187.68C77.5624 187.36 77.4397 187.099 77.1944 186.896C76.9597 186.693 76.6397 186.592 76.2344 186.592H75.0664V185.328H75.9304C76.3357 185.328 76.6504 185.232 76.8744 185.04C77.0984 184.837 77.2104 184.565 77.2104 184.224C77.2104 183.883 77.077 183.605 76.8104 183.392C76.5544 183.179 76.197 183.072 75.7384 183.072C74.8424 183.072 74.2344 183.451 73.9144 184.208L72.7784 183.552C73.3437 182.379 74.3304 181.792 75.7384 181.792C76.613 181.792 77.301 182.016 77.8024 182.464C78.3144 182.912 78.5704 183.461 78.5704 184.112C78.5704 184.923 78.2504 185.52 77.6104 185.904ZM86.2268 182V183.344H83.5068V190H82.1148V183.344H79.3788V182H86.2268ZM93.2546 182H94.3746V190H92.9986V184.384L88.5666 190H87.4466V182H88.8226V187.616L93.2546 182ZM107.262 190H105.534L101.886 186.208V190H100.493V182H101.886V185.536L105.342 182H107.134L103.31 185.872L107.262 190ZM114.574 188.992C113.752 189.803 112.755 190.208 111.582 190.208C110.408 190.208 109.411 189.803 108.59 188.992C107.779 188.181 107.374 187.184 107.374 186C107.374 184.816 107.779 183.819 108.59 183.008C109.411 182.197 110.408 181.792 111.582 181.792C112.755 181.792 113.752 182.197 114.574 183.008C115.395 183.819 115.806 184.816 115.806 186C115.806 187.184 115.395 188.181 114.574 188.992ZM111.582 188.848C112.382 188.848 113.054 188.576 113.598 188.032C114.142 187.488 114.414 186.811 114.414 186C114.414 185.189 114.142 184.512 113.598 183.968C113.054 183.424 112.382 183.152 111.582 183.152C110.792 183.152 110.126 183.424 109.582 183.968C109.038 184.512 108.766 185.189 108.766 186C108.766 186.811 109.038 187.488 109.582 188.032C110.126 188.576 110.792 188.848 111.582 188.848ZM121.863 181.792C122.983 181.792 123.937 182.203 124.727 183.024C125.516 183.835 125.911 184.827 125.911 186C125.911 187.173 125.516 188.171 124.727 188.992C123.937 189.803 122.983 190.208 121.863 190.208C120.54 190.208 119.532 189.68 118.839 188.624V193.2H117.447V182H118.839V183.376C119.532 182.32 120.54 181.792 121.863 181.792ZM121.687 188.864C122.487 188.864 123.159 188.592 123.703 188.048C124.247 187.493 124.519 186.811 124.519 186C124.519 185.189 124.247 184.512 123.703 183.968C123.159 183.413 122.487 183.136 121.687 183.136C120.876 183.136 120.199 183.413 119.655 183.968C119.111 184.512 118.839 185.189 118.839 186C118.839 186.811 119.111 187.493 119.655 188.048C120.199 188.592 120.876 188.864 121.687 188.864ZM135.572 182V190H134.212V184.192L131.668 188.288H131.492L128.948 184.192V190H127.572V182H129.06L131.572 186.048L134.084 182H135.572ZM139.777 188.352L138.737 192.24H137.537L138.177 188.352H139.777ZM35.4624 204V212H34.0704V205.344H30.9184V208.608C30.9184 209.92 30.6517 210.837 30.1184 211.36C29.5957 211.872 28.8544 212.085 27.8944 212V210.688C28.4384 210.763 28.8437 210.645 29.1104 210.336C29.3877 210.016 29.5264 209.429 29.5264 208.576V204H35.4624ZM38.5476 208.64C38.6863 209.355 39.0116 209.909 39.5236 210.304C40.0463 210.699 40.6863 210.896 41.4436 210.896C42.4996 210.896 43.2676 210.507 43.7476 209.728L44.9316 210.4C44.153 211.605 42.9796 212.208 41.4116 212.208C40.1423 212.208 39.1076 211.813 38.3076 211.024C37.5183 210.224 37.1236 209.216 37.1236 208C37.1236 206.795 37.513 205.792 38.2916 204.992C39.0703 204.192 40.0783 203.792 41.3156 203.792C42.489 203.792 43.4436 204.208 44.1796 205.04C44.9263 205.861 45.2996 206.853 45.2996 208.016C45.2996 208.219 45.2836 208.427 45.2516 208.64H38.5476ZM41.3156 205.104C40.569 205.104 39.9503 205.317 39.4596 205.744C38.969 206.16 38.665 206.72 38.5476 207.424H43.8916C43.7743 206.667 43.4756 206.091 42.9956 205.696C42.5156 205.301 41.9556 205.104 41.3156 205.104ZM53.6678 212H51.9398L48.2918 208.208V212H46.8997V204H48.2918V207.536L51.7478 204H53.5398L49.7158 207.872L53.6678 212ZM60.8519 204H62.2439V212H60.8519V210.624C60.1585 211.68 59.1505 212.208 57.8279 212.208C56.7079 212.208 55.7532 211.803 54.9639 210.992C54.1745 210.171 53.7799 209.173 53.7799 208C53.7799 206.827 54.1745 205.835 54.9639 205.024C55.7532 204.203 56.7079 203.792 57.8279 203.792C59.1505 203.792 60.1585 204.32 60.8519 205.376V204ZM58.0039 210.864C58.8145 210.864 59.4919 210.592 60.0359 210.048C60.5799 209.493 60.8519 208.811 60.8519 208C60.8519 207.189 60.5799 206.512 60.0359 205.968C59.4919 205.413 58.8145 205.136 58.0039 205.136C57.2039 205.136 56.5319 205.413 55.9879 205.968C55.4439 206.512 55.1719 207.189 55.1719 208C55.1719 208.811 55.4439 209.493 55.9879 210.048C56.5319 210.592 57.2039 210.864 58.0039 210.864ZM68.7689 203.792C69.8889 203.792 70.8435 204.203 71.6329 205.024C72.4222 205.835 72.8169 206.827 72.8169 208C72.8169 209.173 72.4222 210.171 71.6329 210.992C70.8435 211.803 69.8889 212.208 68.7689 212.208C67.4462 212.208 66.4382 211.68 65.7449 210.624V215.2H64.3529V204H65.7449V205.376C66.4382 204.32 67.4462 203.792 68.7689 203.792ZM68.5929 210.864C69.3929 210.864 70.0649 210.592 70.6089 210.048C71.1529 209.493 71.4249 208.811 71.4249 208C71.4249 207.189 71.1529 206.512 70.6089 205.968C70.0649 205.413 69.3929 205.136 68.5929 205.136C67.7822 205.136 67.1049 205.413 66.5609 205.968C66.0169 206.512 65.7449 207.189 65.7449 208C65.7449 208.811 66.0169 209.493 66.5609 210.048C67.1049 210.592 67.7822 210.864 68.5929 210.864ZM78.2379 212.208C77.0325 212.208 76.0299 211.808 75.2299 211.008C74.4299 210.197 74.0299 209.195 74.0299 208C74.0299 206.805 74.4299 205.808 75.2299 205.008C76.0299 204.197 77.0325 203.792 78.2379 203.792C79.0272 203.792 79.7365 203.984 80.3659 204.368C80.9952 204.741 81.4645 205.248 81.7739 205.888L80.6059 206.56C80.4032 206.133 80.0885 205.792 79.6619 205.536C79.2459 205.28 78.7712 205.152 78.2379 205.152C77.4379 205.152 76.7659 205.424 76.2219 205.968C75.6885 206.512 75.4219 207.189 75.4219 208C75.4219 208.8 75.6885 209.472 76.2219 210.016C76.7659 210.56 77.4379 210.832 78.2379 210.832C78.7712 210.832 79.2512 210.709 79.6779 210.464C80.1045 210.208 80.4299 209.867 80.6539 209.44L81.8379 210.128C81.4965 210.757 81.0059 211.264 80.3659 211.648C79.7259 212.021 79.0165 212.208 78.2379 212.208ZM89.0393 204V205.344H86.3193V212H84.9273V205.344H82.1913V204H89.0393ZM95.5871 207.888C96.4085 208.229 96.8191 208.848 96.8191 209.744C96.8191 210.405 96.5951 210.949 96.1471 211.376C95.7098 211.792 95.0805 212 94.2591 212H90.2591V204H93.9391C94.7391 204 95.3578 204.203 95.7951 204.608C96.2325 205.003 96.4511 205.525 96.4511 206.176C96.4511 206.944 96.1631 207.515 95.5871 207.888ZM93.8751 205.248H91.6191V207.344H93.8751C94.6858 207.344 95.0911 206.987 95.0911 206.272C95.0911 205.589 94.6858 205.248 93.8751 205.248ZM94.1791 210.736C94.5845 210.736 94.8938 210.64 95.1071 210.448C95.3311 210.256 95.4431 209.984 95.4431 209.632C95.4431 209.301 95.3311 209.045 95.1071 208.864C94.8938 208.672 94.5845 208.576 94.1791 208.576H91.6191V210.736H94.1791ZM104.946 204H106.338V212H104.946V210.624C104.252 211.68 103.244 212.208 101.922 212.208C100.802 212.208 99.847 211.803 99.0576 210.992C98.2683 210.171 97.8736 209.173 97.8736 208C97.8736 206.827 98.2683 205.835 99.0576 205.024C99.847 204.203 100.802 203.792 101.922 203.792C103.244 203.792 104.252 204.32 104.946 205.376V204ZM102.098 210.864C102.908 210.864 103.586 210.592 104.13 210.048C104.674 209.493 104.946 208.811 104.946 208C104.946 207.189 104.674 206.512 104.13 205.968C103.586 205.413 102.908 205.136 102.098 205.136C101.298 205.136 100.626 205.413 100.082 205.968C99.5376 206.512 99.2656 207.189 99.2656 208C99.2656 208.811 99.5376 209.493 100.082 210.048C100.626 210.592 101.298 210.864 102.098 210.864ZM118.255 204H119.375V212H117.999V206.384L113.567 212H112.447V204H113.823V209.616L118.255 204ZM128.166 204V212H126.774V205.344H123.622V208.608C123.622 209.92 123.355 210.837 122.822 211.36C122.299 211.872 121.558 212.085 120.598 212V210.688C121.142 210.763 121.547 210.645 121.814 210.336C122.091 210.016 122.23 209.429 122.23 208.576V204H128.166ZM136.083 204H137.203V212H135.827V206.384L131.395 212H130.275V204H131.651V209.616L136.083 204ZM42.7876 232.672H43.8916V236.144H42.5156V234H36.5156V236.144H35.1396V232.672H36.1156C36.6276 231.968 36.8836 230.981 36.8836 229.712V226H42.7876V232.672ZM37.6996 232.672H41.4116V227.296H38.2596V229.712C38.2596 230.907 38.0729 231.893 37.6996 232.672ZM49.8079 225.792C50.9279 225.792 51.8826 226.203 52.6719 227.024C53.4613 227.835 53.8559 228.827 53.8559 230C53.8559 231.173 53.4613 232.171 52.6719 232.992C51.8826 233.803 50.9279 234.208 49.8079 234.208C48.4853 234.208 47.4773 233.68 46.7839 232.624V237.2H45.3919V226H46.7839V227.376C47.4773 226.32 48.4853 225.792 49.8079 225.792ZM49.6319 232.864C50.4319 232.864 51.1039 232.592 51.6479 232.048C52.1919 231.493 52.4639 230.811 52.4639 230C52.4639 229.189 52.1919 228.512 51.6479 227.968C51.1039 227.413 50.4319 227.136 49.6319 227.136C48.8213 227.136 48.1439 227.413 47.5999 227.968C47.0559 228.512 46.7839 229.189 46.7839 230C46.7839 230.811 47.0559 231.493 47.5999 232.048C48.1439 232.592 48.8213 232.864 49.6319 232.864ZM60.7884 226H62.2764L59.0124 234.496C58.6711 235.403 58.1911 236.091 57.5724 236.56C56.9538 237.04 56.2498 237.253 55.4604 237.2V235.904C56.4418 235.979 57.1618 235.445 57.6204 234.304L57.7484 234.016L54.2764 226H55.7484L58.4844 232.272L60.7884 226ZM68.6868 226V227.344H64.8308V234H63.4388V226H68.6868ZM75.7156 226H76.8356V234H75.4596V228.384L71.0276 234H69.9076V226H71.2836V231.616L75.7156 226ZM79.9304 230.64C80.0691 231.355 80.3944 231.909 80.9064 232.304C81.4291 232.699 82.0691 232.896 82.8264 232.896C83.8824 232.896 84.6504 232.507 85.1304 231.728L86.3144 232.4C85.5358 233.605 84.3624 234.208 82.7944 234.208C81.5251 234.208 80.4904 233.813 79.6904 233.024C78.9011 232.224 78.5064 231.216 78.5064 230C78.5064 228.795 78.8958 227.792 79.6744 226.992C80.4531 226.192 81.4611 225.792 82.6984 225.792C83.8718 225.792 84.8264 226.208 85.5624 227.04C86.3091 227.861 86.6824 228.853 86.6824 230.016C86.6824 230.219 86.6664 230.427 86.6344 230.64H79.9304ZM82.6984 227.104C81.9518 227.104 81.3331 227.317 80.8424 227.744C80.3518 228.16 80.0478 228.72 79.9304 229.424H85.2744C85.1571 228.667 84.8584 228.091 84.3784 227.696C83.8984 227.301 83.3384 227.104 82.6984 227.104ZM97.6106 229.888C98.4319 230.229 98.8426 230.848 98.8426 231.744C98.8426 232.405 98.6186 232.949 98.1706 233.376C97.7332 233.792 97.1039 234 96.2826 234H92.2826V226H95.9626C96.7626 226 97.3812 226.203 97.8186 226.608C98.2559 227.003 98.4746 227.525 98.4746 228.176C98.4746 228.944 98.1866 229.515 97.6106 229.888ZM95.8986 227.248H93.6426V229.344H95.8986C96.7092 229.344 97.1146 228.987 97.1146 228.272C97.1146 227.589 96.7092 227.248 95.8986 227.248ZM96.2026 232.736C96.6079 232.736 96.9172 232.64 97.1306 232.448C97.3546 232.256 97.4666 231.984 97.4666 231.632C97.4666 231.301 97.3546 231.045 97.1306 230.864C96.9172 230.672 96.6079 230.576 96.2026 230.576H93.6426V232.736H96.2026ZM101.321 230.64C101.46 231.355 101.785 231.909 102.297 232.304C102.82 232.699 103.46 232.896 104.217 232.896C105.273 232.896 106.041 232.507 106.521 231.728L107.705 232.4C106.926 233.605 105.753 234.208 104.185 234.208C102.916 234.208 101.881 233.813 101.081 233.024C100.292 232.224 99.8971 231.216 99.8971 230C99.8971 228.795 100.286 227.792 101.065 226.992C101.844 226.192 102.852 225.792 104.089 225.792C105.262 225.792 106.217 226.208 106.953 227.04C107.7 227.861 108.073 228.853 108.073 230.016C108.073 230.219 108.057 230.427 108.025 230.64H101.321ZM104.089 227.104C103.342 227.104 102.724 227.317 102.233 227.744C101.742 228.16 101.438 228.72 101.321 229.424H106.665C106.548 228.667 106.249 228.091 105.769 227.696C105.289 227.301 104.729 227.104 104.089 227.104ZM120.553 232.672H121.657V236.144H120.281V234H109.673V226H111.065V232.672H114.425V226H115.817V232.672H119.161V226H120.553V232.672ZM128.966 226H130.086V234H128.71V228.384L124.278 234H123.158V226H124.534V231.616L128.966 226Z" fill="#474747"/>
</svg>
