<svg width="174" height="126" viewBox="0 0 174 126" fill="none" xmlns="http://www.w3.org/2000/svg">
<path fill-rule="evenodd" clip-rule="evenodd" d="M74.4276 23.4059C74.4276 21.4417 75.2086 19.558 76.5988 18.1691C77.989 16.7803 79.8745 16 81.8405 16H126.318C128.284 16 130.169 16.7803 131.56 18.1691C132.95 19.558 133.731 21.4417 133.731 23.4059V41.9207H74.4276V23.4059ZM117.052 27.1089C116.56 27.1089 116.089 27.3039 115.741 27.6511C115.394 27.9984 115.199 28.4693 115.199 28.9603V32.6633C115.199 33.1543 115.394 33.6253 115.741 33.9725C116.089 34.3197 116.56 34.5148 117.052 34.5148H124.465C124.956 34.5148 125.428 34.3197 125.775 33.9725C126.123 33.6253 126.318 33.1543 126.318 32.6633V28.9603C126.318 28.4693 126.123 27.9984 125.775 27.6511C125.428 27.3039 124.956 27.1089 124.465 27.1089H117.052Z" fill="#FFC41E"/>
<path d="M74.4273 49.3267V53.0296C74.4273 54.9938 75.2083 56.8775 76.5985 58.2664C77.9886 59.6553 79.8741 60.4355 81.8402 60.4355H126.318C128.284 60.4355 130.169 59.6553 131.559 58.2664C132.949 56.8775 133.73 54.9938 133.73 53.0296V49.3267H74.4273Z" fill="#FFC41E"/>
<mask id="path-3-inside-1" fill="white">
<rect x="23" y="50.7286" width="20.1631" height="58.2713" rx="2"/>
</mask>
<rect x="23" y="50.7286" width="20.1631" height="58.2713" rx="2" stroke="#242424" stroke-width="10" mask="url(#path-3-inside-1)"/>
<path d="M49.5198 60.6232V99.2725C58.4152 99.2725 61.1524 101.08 70.2759 101.651C101.359 111.43 107.918 108.055 123.047 99.2725C128.645 96.0235 137.74 88.9827 144.036 83.8128C152.49 75.4406 151.64 73.2288 149.742 71.3261C141.44 63.0016 132.544 82.6236 115.939 83.8128C103.154 84.7285 81.5435 82.6236 76.2062 82.6236" stroke="#242424" stroke-width="5"/>
<path d="M47.5581 60.6544C52.7674 60.2826 63.2213 58.7453 67.9038 60.6233C73.8341 63.0017 76.2973 68.2104 79.6703 69.341C87.3663 71.9207 99.9469 71.4901 104.672 71.9207C111.195 72.5153 121.87 72.5153 121.277 81.4344C120.902 87.0628 89.2529 82.6236 76.7992 82.6236" stroke="#242424" stroke-width="5"/>
</svg>
