<svg width="166" height="240" viewBox="0 0 166 240" fill="none" xmlns="http://www.w3.org/2000/svg">
<path d="M11.1547 184.192C11.6667 184.437 12.072 184.789 12.3707 185.248C12.68 185.707 12.8347 186.235 12.8347 186.832C12.8347 187.728 12.52 188.48 11.8907 189.088C11.2614 189.696 10.4934 190 9.58669 190H4.75469V178.8H9.23469C10.1094 178.8 10.8507 179.093 11.4587 179.68C12.0667 180.267 12.3707 180.992 12.3707 181.856C12.3707 182.848 11.9654 183.627 11.1547 184.192ZM9.23469 180.192H6.24269V183.616H9.23469C9.70402 183.616 10.0987 183.451 10.4187 183.12C10.7387 182.789 10.8987 182.384 10.8987 181.904C10.8987 181.435 10.7334 181.035 10.4027 180.704C10.0827 180.363 9.69335 180.192 9.23469 180.192ZM9.58669 188.608C10.088 188.608 10.5094 188.432 10.8507 188.08C11.192 187.728 11.3627 187.296 11.3627 186.784C11.3627 186.283 11.1867 185.856 10.8347 185.504C10.4934 185.152 10.0774 184.976 9.58669 184.976H6.24269V188.608H9.58669ZM17.8304 184.88C18.6304 184.88 19.2918 185.12 19.8144 185.6C20.3478 186.069 20.6144 186.683 20.6144 187.44C20.6144 188.197 20.3478 188.816 19.8144 189.296C19.2918 189.765 18.6304 190 17.8304 190H14.4544V182H15.8464V184.88H17.8304ZM21.6544 182H23.0464V190H21.6544V182ZM17.8304 188.704C18.2251 188.704 18.5558 188.592 18.8224 188.368C19.0998 188.133 19.2384 187.824 19.2384 187.44C19.2384 187.056 19.0998 186.747 18.8224 186.512C18.5558 186.277 18.2251 186.16 17.8304 186.16H15.8464V188.704H17.8304ZM30.4212 182V183.344H26.5652V190H25.1732V182H30.4212ZM37.6791 182H39.1671L35.9031 190.496C35.5617 191.403 35.0817 192.091 34.4631 192.56C33.8444 193.04 33.1404 193.253 32.3511 193.2V191.904C33.3324 191.979 34.0524 191.445 34.5111 190.304L34.6391 190.016L31.1671 182H32.6391L35.3751 188.272L37.6791 182ZM46.5014 182V190H45.1094V183.344H41.9574V186.608C41.9574 187.92 41.6908 188.837 41.1574 189.36C40.6348 189.872 39.8934 190.085 38.9334 190V188.688C39.4774 188.763 39.8828 188.645 40.1494 188.336C40.4268 188.016 40.5654 187.429 40.5654 186.576V182H46.5014ZM54.4187 182H55.5387V190H54.1627V184.384L49.7307 190H48.6107V182H49.9867V187.616L54.4187 182ZM62.9856 185.888C63.8069 186.229 64.2176 186.848 64.2176 187.744C64.2176 188.405 63.9936 188.949 63.5456 189.376C63.1082 189.792 62.4789 190 61.6576 190H57.6576V182H61.3376C62.1376 182 62.7562 182.203 63.1936 182.608C63.6309 183.003 63.8496 183.525 63.8496 184.176C63.8496 184.944 63.5616 185.515 62.9856 185.888ZM61.2736 183.248H59.0176V185.344H61.2736C62.0842 185.344 62.4896 184.987 62.4896 184.272C62.4896 183.589 62.0842 183.248 61.2736 183.248ZM61.5776 188.736C61.9829 188.736 62.2922 188.64 62.5056 188.448C62.7296 188.256 62.8416 187.984 62.8416 187.632C62.8416 187.301 62.7296 187.045 62.5056 186.864C62.2922 186.672 61.9829 186.576 61.5776 186.576H59.0176V188.736H61.5776ZM72.3441 182H73.7361V190H72.3441V188.624C71.6507 189.68 70.6427 190.208 69.3201 190.208C68.2001 190.208 67.2454 189.803 66.4561 188.992C65.6667 188.171 65.2721 187.173 65.2721 186C65.2721 184.827 65.6667 183.835 66.4561 183.024C67.2454 182.203 68.2001 181.792 69.3201 181.792C70.6427 181.792 71.6507 182.32 72.3441 183.376V182ZM69.4961 188.864C70.3067 188.864 70.9841 188.592 71.5281 188.048C72.0721 187.493 72.3441 186.811 72.3441 186C72.3441 185.189 72.0721 184.512 71.5281 183.968C70.9841 183.413 70.3067 183.136 69.4961 183.136C68.6961 183.136 68.0241 183.413 67.4801 183.968C66.9361 184.512 66.6641 185.189 66.6641 186C66.6641 186.811 66.9361 187.493 67.4801 188.048C68.0241 188.592 68.6961 188.864 69.4961 188.864ZM81.7971 182V183.344H79.0771V190H77.6851V183.344H74.9491V182H81.7971ZM86.3929 184.88C87.1929 184.88 87.8543 185.12 88.3769 185.6C88.9103 186.069 89.1769 186.683 89.1769 187.44C89.1769 188.197 88.9103 188.816 88.3769 189.296C87.8543 189.765 87.1929 190 86.3929 190H83.0169V182H84.4089V184.88H86.3929ZM86.3929 188.704C86.7876 188.704 87.1183 188.592 87.3849 188.368C87.6623 188.133 87.8009 187.824 87.8009 187.44C87.8009 187.056 87.6623 186.747 87.3849 186.512C87.1183 186.277 86.7876 186.16 86.3929 186.16H84.4089V188.704H86.3929ZM92.5813 188.352L91.5413 192.24H90.3413L90.9813 188.352H92.5813ZM105.316 190H103.588L99.9402 186.208V190H98.5482V182H99.9402V185.536L103.396 182H105.188L101.364 185.872L105.316 190ZM112.628 188.992C111.807 189.803 110.81 190.208 109.636 190.208C108.463 190.208 107.466 189.803 106.644 188.992C105.834 188.181 105.428 187.184 105.428 186C105.428 184.816 105.834 183.819 106.644 183.008C107.466 182.197 108.463 181.792 109.636 181.792C110.81 181.792 111.807 182.197 112.628 183.008C113.45 183.819 113.86 184.816 113.86 186C113.86 187.184 113.45 188.181 112.628 188.992ZM109.636 188.848C110.436 188.848 111.108 188.576 111.652 188.032C112.196 187.488 112.468 186.811 112.468 186C112.468 185.189 112.196 184.512 111.652 183.968C111.108 183.424 110.436 183.152 109.636 183.152C108.847 183.152 108.18 183.424 107.636 183.968C107.092 184.512 106.82 185.189 106.82 186C106.82 186.811 107.092 187.488 107.636 188.032C108.18 188.576 108.847 188.848 109.636 188.848ZM119.917 181.792C121.037 181.792 121.992 182.203 122.781 183.024C123.571 183.835 123.965 184.827 123.965 186C123.965 187.173 123.571 188.171 122.781 188.992C121.992 189.803 121.037 190.208 119.917 190.208C118.595 190.208 117.587 189.68 116.893 188.624V193.2H115.501V182H116.893V183.376C117.587 182.32 118.595 181.792 119.917 181.792ZM119.741 188.864C120.541 188.864 121.213 188.592 121.757 188.048C122.301 187.493 122.573 186.811 122.573 186C122.573 185.189 122.301 184.512 121.757 183.968C121.213 183.413 120.541 183.136 119.741 183.136C118.931 183.136 118.253 183.413 117.709 183.968C117.165 184.512 116.893 185.189 116.893 186C116.893 186.811 117.165 187.493 117.709 188.048C118.253 188.592 118.931 188.864 119.741 188.864ZM133.626 182V190H132.266V184.192L129.722 188.288H129.546L127.002 184.192V190H125.626V182H127.114L129.626 186.048L132.138 182H133.626ZM141.559 182H142.679V190H141.303V184.384L136.871 190H135.751V182H137.127V187.616L141.559 182ZM150.75 182V183.344H148.03V190H146.638V183.344H143.902V182H150.75ZM155.346 184.88C156.146 184.88 156.807 185.12 157.33 185.6C157.863 186.069 158.13 186.683 158.13 187.44C158.13 188.197 157.863 188.816 157.33 189.296C156.807 189.765 156.146 190 155.346 190H151.97V182H153.362V184.88H155.346ZM155.346 188.704C155.741 188.704 156.071 188.592 156.338 188.368C156.615 188.133 156.754 187.824 156.754 187.44C156.754 187.056 156.615 186.747 156.338 186.512C156.071 186.277 155.741 186.16 155.346 186.16H153.362V188.704H155.346ZM161.534 188.352L160.494 192.24H159.294L159.934 188.352H161.534ZM31.5169 204V212H30.1569V206.192L27.6129 210.288H27.4369L24.8929 206.192V212H23.5169V204H25.0049L27.5169 208.048L30.0289 204H31.5169ZM37.0179 206.88C37.8179 206.88 38.4793 207.12 39.0019 207.6C39.5353 208.069 39.8019 208.683 39.8019 209.44C39.8019 210.197 39.5353 210.816 39.0019 211.296C38.4793 211.765 37.8179 212 37.0179 212H33.6419V204H35.0339V206.88H37.0179ZM40.8419 204H42.2339V212H40.8419V204ZM37.0179 210.704C37.4126 210.704 37.7433 210.592 38.0099 210.368C38.2873 210.133 38.4259 209.824 38.4259 209.44C38.4259 209.056 38.2873 208.747 38.0099 208.512C37.7433 208.277 37.4126 208.16 37.0179 208.16H35.0339V210.704H37.0179ZM50.3127 204V205.344H47.5927V212H46.2007V205.344H43.4647V204H50.3127ZM54.9086 206.88C55.7086 206.88 56.3699 207.12 56.8926 207.6C57.4259 208.069 57.6926 208.683 57.6926 209.44C57.6926 210.197 57.4259 210.816 56.8926 211.296C56.3699 211.765 55.7086 212 54.9086 212H51.5326V204H52.9246V206.88H54.9086ZM54.9086 210.704C55.3032 210.704 55.6339 210.592 55.9006 210.368C56.1779 210.133 56.3166 209.824 56.3166 209.44C56.3166 209.056 56.1779 208.747 55.9006 208.512C55.6339 208.277 55.3032 208.16 54.9086 208.16H52.9246V210.704H54.9086ZM68.9968 204H70.1168V212H68.7408V206.384L64.3088 212H63.1888V204H64.5648V209.616L68.9968 204ZM78.9077 204V212H77.5157V205.344H74.3637V208.608C74.3637 209.92 74.097 210.837 73.5637 211.36C73.041 211.872 72.2997 212.085 71.3397 212V210.688C71.8837 210.763 72.289 210.645 72.5557 210.336C72.833 210.016 72.9717 209.429 72.9717 208.576V204H78.9077ZM86.8249 204H87.9449V212H86.5689V206.384L82.1369 212H81.0169V204H82.3929V209.616L86.8249 204ZM100.736 204V212H99.3438V205.344H96.1918V208.608C96.1918 209.92 95.9251 210.837 95.3918 211.36C94.8691 211.872 94.1278 212.085 93.1678 212V210.688C93.7118 210.763 94.1171 210.645 94.3838 210.336C94.6611 210.016 94.7998 209.429 94.7998 208.576V204H100.736ZM103.821 208.64C103.96 209.355 104.285 209.909 104.797 210.304C105.32 210.699 105.96 210.896 106.717 210.896C107.773 210.896 108.541 210.507 109.021 209.728L110.205 210.4C109.426 211.605 108.253 212.208 106.685 212.208C105.416 212.208 104.381 211.813 103.581 211.024C102.792 210.224 102.397 209.216 102.397 208C102.397 206.795 102.786 205.792 103.565 204.992C104.344 204.192 105.352 203.792 106.589 203.792C107.762 203.792 108.717 204.208 109.453 205.04C110.2 205.861 110.573 206.853 110.573 208.016C110.573 208.219 110.557 208.427 110.525 208.64H103.821ZM106.589 205.104C105.842 205.104 105.224 205.317 104.733 205.744C104.242 206.16 103.938 206.72 103.821 207.424H109.165C109.048 206.667 108.749 206.091 108.269 205.696C107.789 205.301 107.229 205.104 106.589 205.104ZM117.213 204H118.605V212H117.213V209.12C116.573 209.397 115.853 209.536 115.053 209.536C114.029 209.536 113.235 209.296 112.669 208.816C112.115 208.325 111.837 207.605 111.837 206.656V204H113.229V206.576C113.229 207.173 113.389 207.6 113.709 207.856C114.04 208.112 114.52 208.24 115.149 208.24C115.907 208.24 116.595 208.101 117.213 207.824V204ZM126.528 204H127.648V212H126.272V206.384L121.84 212H120.72V204H122.096V209.616L126.528 204ZM135.719 204V205.344H132.999V212H131.607V205.344H128.871V204H135.719ZM140.315 206.88C141.115 206.88 141.776 207.12 142.299 207.6C142.832 208.069 143.099 208.683 143.099 209.44C143.099 210.197 142.832 210.816 142.299 211.296C141.776 211.765 141.115 212 140.315 212H136.939V204H138.331V206.88H140.315ZM140.315 210.704C140.709 210.704 141.04 210.592 141.307 210.368C141.584 210.133 141.723 209.824 141.723 209.44C141.723 209.056 141.584 208.747 141.307 208.512C141.04 208.277 140.709 208.16 140.315 208.16H138.331V210.704H140.315ZM53.1172 234H51.4852L49.2452 230.976L46.9892 234H45.3572L48.4292 229.888L45.5332 226H47.1812L49.2452 228.784L51.3092 226H52.9412L50.0612 229.872L53.1172 234ZM59.7356 229.888C60.5569 230.229 60.9676 230.848 60.9676 231.744C60.9676 232.405 60.7436 232.949 60.2956 233.376C59.8582 233.792 59.2289 234 58.4076 234H54.4076V226H58.0876C58.8876 226 59.5062 226.203 59.9436 226.608C60.3809 227.003 60.5996 227.525 60.5996 228.176C60.5996 228.944 60.3116 229.515 59.7356 229.888ZM58.0236 227.248H55.7676V229.344H58.0236C58.8342 229.344 59.2396 228.987 59.2396 228.272C59.2396 227.589 58.8342 227.248 58.0236 227.248ZM58.3276 232.736C58.7329 232.736 59.0422 232.64 59.2556 232.448C59.4796 232.256 59.5916 231.984 59.5916 231.632C59.5916 231.301 59.4796 231.045 59.2556 230.864C59.0422 230.672 58.7329 230.576 58.3276 230.576H55.7676V232.736H58.3276ZM69.2221 232.992C68.4007 233.803 67.4034 234.208 66.2301 234.208C65.0567 234.208 64.0594 233.803 63.2381 232.992C62.4274 232.181 62.0221 231.184 62.0221 230C62.0221 228.816 62.4274 227.819 63.2381 227.008C64.0594 226.197 65.0567 225.792 66.2301 225.792C67.4034 225.792 68.4007 226.197 69.2221 227.008C70.0434 227.819 70.4541 228.816 70.4541 230C70.4541 231.184 70.0434 232.181 69.2221 232.992ZM66.2301 232.848C67.0301 232.848 67.7021 232.576 68.2461 232.032C68.7901 231.488 69.0621 230.811 69.0621 230C69.0621 229.189 68.7901 228.512 68.2461 227.968C67.7021 227.424 67.0301 227.152 66.2301 227.152C65.4407 227.152 64.7741 227.424 64.2301 227.968C63.6861 228.512 63.4141 229.189 63.4141 230C63.4141 230.811 63.6861 231.488 64.2301 232.032C64.7741 232.576 65.4407 232.848 66.2301 232.848ZM75.8551 234.208C74.6497 234.208 73.6471 233.808 72.8471 233.008C72.0471 232.197 71.6471 231.195 71.6471 230C71.6471 228.805 72.0471 227.808 72.8471 227.008C73.6471 226.197 74.6497 225.792 75.8551 225.792C76.6444 225.792 77.3537 225.984 77.9831 226.368C78.6124 226.741 79.0817 227.248 79.3911 227.888L78.2231 228.56C78.0204 228.133 77.7057 227.792 77.2791 227.536C76.8631 227.28 76.3884 227.152 75.8551 227.152C75.0551 227.152 74.3831 227.424 73.8391 227.968C73.3057 228.512 73.0391 229.189 73.0391 230C73.0391 230.8 73.3057 231.472 73.8391 232.016C74.3831 232.56 75.0551 232.832 75.8551 232.832C76.3884 232.832 76.8684 232.709 77.2951 232.464C77.7217 232.208 78.0471 231.867 78.2711 231.44L79.4551 232.128C79.1137 232.757 78.6231 233.264 77.9831 233.648C77.3431 234.021 76.6337 234.208 75.8551 234.208ZM86.6564 226V227.344H83.9364V234H82.5444V227.344H79.8084V226H86.6564ZM93.6843 226H94.8043V234H93.4283V228.384L88.9963 234H87.8763V226H89.2523V231.616L93.6843 226ZM103.691 234H101.963L98.3152 230.208V234H96.9232V226H98.3152V229.536L101.771 226H103.563L99.7392 229.872L103.691 234ZM111.003 232.992C110.182 233.803 109.185 234.208 108.011 234.208C106.838 234.208 105.841 233.803 105.019 232.992C104.209 232.181 103.803 231.184 103.803 230C103.803 228.816 104.209 227.819 105.019 227.008C105.841 226.197 106.838 225.792 108.011 225.792C109.185 225.792 110.182 226.197 111.003 227.008C111.825 227.819 112.235 228.816 112.235 230C112.235 231.184 111.825 232.181 111.003 232.992ZM108.011 232.848C108.811 232.848 109.483 232.576 110.027 232.032C110.571 231.488 110.843 230.811 110.843 230C110.843 229.189 110.571 228.512 110.027 227.968C109.483 227.424 108.811 227.152 108.011 227.152C107.222 227.152 106.555 227.424 106.011 227.968C105.467 228.512 105.195 229.189 105.195 230C105.195 230.811 105.467 231.488 106.011 232.032C106.555 232.576 107.222 232.848 108.011 232.848ZM119.204 229.888C120.026 230.229 120.436 230.848 120.436 231.744C120.436 232.405 120.212 232.949 119.764 233.376C119.327 233.792 118.698 234 117.876 234H113.876V226H117.556C118.356 226 118.975 226.203 119.412 226.608C119.85 227.003 120.068 227.525 120.068 228.176C120.068 228.944 119.78 229.515 119.204 229.888ZM117.492 227.248H115.236V229.344H117.492C118.303 229.344 118.708 228.987 118.708 228.272C118.708 227.589 118.303 227.248 117.492 227.248ZM117.796 232.736C118.202 232.736 118.511 232.64 118.724 232.448C118.948 232.256 119.06 231.984 119.06 231.632C119.06 231.301 118.948 231.045 118.724 230.864C118.511 230.672 118.202 230.576 117.796 230.576H115.236V232.736H117.796Z" fill="#474747"/>
<path fill-rule="evenodd" clip-rule="evenodd" d="M83 148C123.317 148 156 115.317 156 75C156 34.6832 123.317 2 83 2C42.6832 2 10 34.6832 10 75C10 115.317 42.6832 148 83 148ZM83 150C124.421 150 158 116.421 158 75C158 33.5786 124.421 0 83 0C41.5786 0 8 33.5786 8 75C8 116.421 41.5786 150 83 150Z" fill="#FFC41E"/>
<path fill-rule="evenodd" clip-rule="evenodd" d="M61.438 53.5057C60.5352 53.5057 59.6637 53.8691 59.0167 54.5251C58.3689 55.182 58 56.0788 58 57.0197V87.3466C58 88.4512 57.1046 89.3466 56 89.3466C54.8954 89.3466 54 88.4512 54 87.3466V57.0197C54 55.0357 54.777 53.1276 56.1688 51.7163C57.5614 50.3042 59.4563 49.5057 61.438 49.5057C63.4197 49.5057 65.3145 50.3042 66.7072 51.7163C68.099 53.1276 68.876 55.0357 68.876 57.0197V76.3186C68.876 77.4232 67.9805 78.3186 66.876 78.3186C65.7714 78.3186 64.876 77.4232 64.876 76.3186V57.0197C64.876 56.0788 64.5071 55.182 63.8592 54.5251C63.2123 53.8691 62.3408 53.5057 61.438 53.5057Z" fill="black"/>
<path fill-rule="evenodd" clip-rule="evenodd" d="M72.5504 42.6591C71.5577 42.6591 70.6167 43.0428 69.9318 43.7084C69.2487 44.3722 68.876 45.2599 68.876 46.1731V76.5C68.876 77.6046 67.9805 78.5 66.876 78.5C65.7714 78.5 64.876 77.6046 64.876 76.5V46.1731C64.876 44.1614 65.6989 42.2442 67.1442 40.8398C68.5875 39.4372 70.5332 38.6591 72.5504 38.6591C74.5676 38.6591 76.5133 39.4372 77.9566 40.8398C79.4019 42.2442 80.2248 44.1614 80.2248 46.1731V73.743C80.2248 74.8476 79.3294 75.743 78.2248 75.743C77.1202 75.743 76.2248 74.8476 76.2248 73.743V46.1731C76.2248 45.2599 75.852 44.3722 75.169 43.7084C74.4841 43.0428 73.5431 42.6591 72.5504 42.6591Z" fill="black"/>
<path fill-rule="evenodd" clip-rule="evenodd" d="M94.775 45.4886C93.7787 45.4886 92.8364 45.8716 92.1522 46.5327C91.4704 47.1915 91.1006 48.07 91.1006 48.9709V73.8123C91.1006 74.9169 90.2052 75.8123 89.1006 75.8123C87.996 75.8123 87.1006 74.9169 87.1006 73.8123V48.9709C87.1006 46.9638 87.9265 45.0534 89.3729 43.656C90.817 42.2608 92.7614 41.4886 94.775 41.4886C96.7886 41.4886 98.733 42.2608 100.177 43.656C101.624 45.0534 102.449 46.9638 102.449 48.9709V87.3466C102.449 88.4511 101.554 89.3466 100.449 89.3466C99.3449 89.3466 98.4494 88.4511 98.4494 87.3466V48.9709C98.4494 48.07 98.0796 47.1915 97.3978 46.5327C96.7136 45.8716 95.7713 45.4886 94.775 45.4886Z" fill="black"/>
<path fill-rule="evenodd" clip-rule="evenodd" d="M83.6626 37C82.761 37 81.8899 37.3635 81.2427 38.0211C80.5944 38.6797 80.2246 39.5796 80.2246 40.5244V73.6705C80.2246 74.775 79.3292 75.6705 78.2246 75.6705C77.12 75.6705 76.2246 74.775 76.2246 73.6705V40.5244C76.2246 38.5388 77.0007 36.6284 78.392 35.215C79.7844 33.8005 81.6797 33 83.6626 33C85.6455 33 87.5408 33.8005 88.9331 35.215C90.3245 36.6284 91.1006 38.5388 91.1006 40.5244V73.6705C91.1006 74.775 90.2051 75.6705 89.1006 75.6705C87.996 75.6705 87.1006 74.775 87.1006 73.6705V40.5244C87.1006 39.5796 86.7308 38.6797 86.0825 38.0211C85.4353 37.3635 84.5641 37 83.6626 37Z" fill="black"/>
<path fill-rule="evenodd" clip-rule="evenodd" d="M104.918 71.2914C106.968 67.3931 111.815 66.4441 115.355 68.4576C117.166 69.4873 118.32 71.0453 118.777 72.8978C119.22 74.6958 118.973 76.6216 118.301 78.4474C118.3 78.4484 118.3 78.4495 118.3 78.4505L109.168 103.423C109.157 103.452 109.146 103.48 109.134 103.509C107.292 107.908 104.674 112.089 100.372 115.146C96.0618 118.21 90.2678 120 82.3379 120C74.2564 120 67.1 117.294 61.9788 111.726C56.8724 106.174 54 98.0074 54 87.4722C54 86.3676 54.8954 85.4722 56 85.4722C57.1046 85.4722 58 86.3676 58 87.4722C58 97.3005 60.6724 104.397 64.9229 109.018C69.1586 113.624 75.1712 116 82.3379 116C89.6563 116 94.5803 114.356 98.0548 111.886C101.526 109.419 103.756 105.983 105.427 102.005L114.545 77.0719L114.546 77.0671C115.027 75.7629 115.095 74.6727 114.893 73.8552C114.705 73.0911 114.254 72.4333 113.378 71.9348L113.377 71.9346C111.565 70.9036 109.383 71.4971 108.496 73.0831L102.206 88.2389C101.782 89.2591 100.612 89.7428 99.5919 89.3194C98.5717 88.8959 98.0879 87.7257 98.5114 86.7055L104.841 71.4554C104.864 71.3996 104.89 71.3449 104.918 71.2914Z" fill="black"/>
<path fill-rule="evenodd" clip-rule="evenodd" d="M85.3461 90.1389C85.4944 90.161 85.6442 90.172 85.7941 90.172C86.8932 90.172 87.9611 89.5919 88.8033 88.5381C89.5528 87.6001 90.0737 86.3374 90.2718 84.9808C90.7404 81.7539 89.3129 78.9659 87.022 78.6285C86.8737 78.6065 86.724 78.5954 86.574 78.5954C85.4763 78.5968 84.4063 79.1762 83.5655 80.2279C82.8153 81.1652 82.2916 82.4293 82.0963 83.788C81.6277 87.015 83.0552 89.8029 85.3461 90.1389ZM76.8085 90.1721C75.7101 90.1721 74.6414 89.5919 73.7993 88.5381C73.0491 87.6001 72.5254 86.3374 72.33 84.9823C71.8615 81.7539 73.289 78.966 75.5799 78.63C75.7282 78.6079 75.8779 78.5968 76.0279 78.5968C77.1255 78.5968 78.1956 79.1763 79.0364 80.2279C79.7866 81.1653 80.3103 82.4294 80.5063 83.7866C80.9748 87.015 79.5474 89.803 77.2565 90.1389C77.1082 90.161 76.9584 90.1721 76.8085 90.1721ZM97.8891 88.1076C97.4963 87.1766 96.8438 86.5054 96.0016 86.1673L95.9903 86.1631C95.607 86.0133 95.1989 85.9367 94.7872 85.9372H94.7419C92.8141 85.9661 90.8459 87.6001 89.8452 90.0034C89.1113 91.7608 89.027 93.651 89.6201 95.0598C90.0122 95.9914 90.6661 96.6627 91.5118 97.0008L91.521 97.0043C91.9044 97.1539 92.3125 97.2305 92.7242 97.2301C94.6704 97.2301 96.6591 95.5962 97.6782 93.1612C98.4029 91.4058 98.4829 89.5171 97.8891 88.1076ZM90.1864 98.473C89.0746 97.8067 88.0236 97.1765 87.3371 96.0443C85.4433 92.9106 84.2996 91.019 81.301 91.019C78.3024 91.019 77.1559 92.9106 75.2578 96.0443C74.5706 97.1767 73.519 97.8076 72.4049 98.4759L72.4014 98.478L72.4013 98.4781C71.1225 99.2445 69.8012 100.036 69.2308 101.595C69.0091 102.157 68.8974 102.756 68.9017 103.359C68.9017 105.897 70.8834 107.961 73.3179 107.961C74.5741 107.961 75.911 107.527 77.3257 107.068C78.686 106.626 80.0922 106.169 81.3081 106.169C82.5239 106.169 83.9266 106.626 85.2819 107.068L85.3201 107.08C86.7178 107.532 88.0357 107.958 89.2841 107.958C91.7151 107.958 93.6932 105.894 93.6932 103.357C93.6952 102.752 93.5811 102.153 93.357 101.592C92.7867 100.032 91.465 99.2398 90.1871 98.4734L90.1864 98.473ZM71.0907 97.0008L71.0808 97.0043C70.6982 97.1539 70.2908 97.2305 69.8798 97.2301C67.9357 97.2301 65.9477 95.5955 64.9335 93.1633C64.2011 91.4058 64.1175 89.5178 64.7106 88.1062C65.102 87.1752 65.7552 86.5019 66.5974 86.1666L66.6073 86.1631C66.9906 86.0132 67.3987 85.9366 67.8104 85.9372C69.7545 85.9372 71.7425 87.5719 72.7567 90.0041C73.4892 91.7615 73.5727 93.6496 72.9796 95.0612C72.5883 95.9922 71.935 96.6627 71.0907 97.0008Z" fill="#FFC41E"/>
</svg>
